# xmcd
#
# Track frame offsets:
#	150
#	23425
#	41909
#	58480
#	90209
#	111004
#	128598
#	150415
#	169304
#	184796
#	202698
#
# Disc length: 2950 seconds
#
# Revision: 2
# Processed by: cddbd v1.5.2PL0 Copyright (c) Steve Scherf et al.
# Submitted via: audiograbber 1.83.01
#
DISCID=810b840b
DTITLE=Barclay James Harvest - Gone To Earth [Deluxe Edition ] [CD 2) [New Ster
DTITLE=eo Mix 2016]
DYEAR=2016
DGENRE=Progressive Rock
TTITLE0=Hymn
TTITLE1=Love Is Like A Violin
TTITLE2=Friend Of Mine
TTITLE3=Poor Man's Moody Blues
TTITLE4=Hard Hearted Woman
TTITLE5=Sea Of Tranquility
TTITLE6=Spirit On The Water
TTITLE7=Leper's Song
TTITLE8=Taking Me Higher
TTITLE9=Bonus Track: Loving Is Easy [1977 version]
TTITLE10=Bonus Track: Our Kid's Kid
EXTD=
EXTT0=
EXTT1=
EXTT2=
EXTT3=
EXTT4=
EXTT5=
EXTT6=
EXTT7=
EXTT8=
EXTT9=
EXTT10=
PLAYORDER=
